<?xml version="1.0" encoding="iso-8859-1"?>
<!-- Generator: Adobe Illustrator 18.0.0, SVG Export Plug-In . SVG Version: 6.00 Build 0)  -->
<!DOCTYPE svg PUBLIC "-//W3C//DTD SVG 1.1//EN" "http://www.w3.org/Graphics/SVG/1.1/DTD/svg11.dtd">
<svg version="1.1" id="Capa_1" xmlns="http://www.w3.org/2000/svg" xmlns:xlink="http://www.w3.org/1999/xlink" x="0px" y="0px"
	 viewBox="0 0 212.975 212.975" style="enable-background:new 0 0 212.975 212.975;" xml:space="preserve">
	 <defs>
    <linearGradient id="grad1" x1="0%" y1="80%" x2="100%" y2="0%">
      <stop offset="0%" style="stop-color:#9370DB;stop-opacity:1" />
      <stop offset="40%" style="stop-color:#BA55D3;stop-opacity:1" />
      <stop offset="100%" style="stop-color:#02e9d9;stop-opacity:1" />
    </linearGradient>
  </defs>
<g fill="url(#grad1)">
	<rect x="38.616" y="35.463" width="56.743" height="12"/>
	<path d="M171.837,48.967c1.98,0,3.91-0.8,5.31-2.2c1.39-1.4,2.19-3.33,2.19-5.3c0-1.98-0.8-3.91-2.19-5.31
		c-1.4-1.39-3.33-2.19-5.31-2.19c-1.97,0-3.9,0.8-5.3,2.19c-1.39,1.4-2.2,3.33-2.2,5.31c0,1.97,0.81,3.9,2.2,5.3
		C167.937,48.167,169.867,48.967,171.837,48.967z"/>
	<path d="M144.847,48.967c1.97,0,3.9-0.8,5.3-2.2c1.39-1.4,2.19-3.33,2.19-5.3c0-1.98-0.8-3.91-2.19-5.31
		c-1.4-1.39-3.33-2.19-5.3-2.19c-1.98,0-3.91,0.8-5.31,2.19c-1.39,1.4-2.19,3.33-2.19,5.31c0,1.97,0.8,3.9,2.19,5.3
		C140.937,48.167,142.867,48.967,144.847,48.967z"/>
	<path d="M117.847,48.967c1.97,0,3.9-0.8,5.3-2.2c1.4-1.4,2.2-3.33,2.2-5.3c0-1.98-0.8-3.91-2.2-5.31c-1.4-1.39-3.33-2.19-5.3-2.19
		c-1.98,0-3.91,0.8-5.31,2.19c-1.39,1.4-2.19,3.33-2.19,5.31c0,1.97,0.8,3.9,2.19,5.3C113.937,48.167,115.867,48.967,117.847,48.967
		z"/>
	<path d="M0,10.678v191.618h212.975V10.678H0z M197.975,25.678v31.571H15V25.678H197.975z M15,187.296V72.249h182.975v115.047H15z"
		/>
	<path d="M106.487,96.206c-26.972,0-48.915,21.943-48.915,48.915c0,8.604,2.266,17.064,6.552,24.467l10.385-6.013
		c-3.229-5.578-4.936-11.96-4.936-18.455c0-20.355,16.56-36.915,36.915-36.915s36.915,16.56,36.915,36.915
		c0,6.494-1.708,12.877-4.939,18.46l10.386,6.011c4.287-7.408,6.553-15.87,6.553-24.471
		C155.402,118.15,133.459,96.206,106.487,96.206z"/>
	<polygon points="110.729,154.321 131.287,125.279 102.244,145.836 	"/>
</g>
<g>
</g>
<g>
</g>
<g>
</g>
<g>
</g>
<g>
</g>
<g>
</g>
<g>
</g>
<g>
</g>
<g>
</g>
<g>
</g>
<g>
</g>
<g>
</g>
<g>
</g>
<g>
</g>
<g>
</g>
</svg>
